<?xml version="1.0" standalone="no"?>
<!DOCTYPE svg PUBLIC "-//W3C//DTD SVG 1.1//EN"
  "http://www.w3.org/Graphics/SVG/1.1/DTD/svg11.dtd">
<svg width="178mm" height="117.99999999999997mm" viewBox="-91 -24.999999999999993 178 117.99999999999997" xmlns="http://www.w3.org/2000/svg" version="1.1">
	<title>svgOutput</title>
	<desc>made with tinkercad</desc>
<path d="M -39 11.998000144958494 L -40 11.998000144958494 L -42.00299835205078 11.998000144958494 L -42.00299835205078 26.999999999999993 L -53.99800109863281 26.999999999999993 L -53.99800109863281 23.997999191284176 L -74.00299835205078 23.997999191284176 L -74.00299835205078 26.999999999999993 L -85.99800109863281 26.999999999999993 L -85.99800109863281 11.998000144958494 L -89 11.998000144958494 L -89 -7.998000144958494 L -85.99800109863281 -7.998000144958494 L -85.99800109863281 -22.999999999999996 L -74.00299835205078 -22.999999999999996 L -74.00299835205078 -19.997999191284176 L -53.99800109863281 -19.997999191284176 L -53.99800109863281 -22.999999999999996 L -42.00299835205078 -22.999999999999996 L -42.00299835205078 -7.998000144958494 L -40 -7.998000144958494 L -39 -7.998000144958494 L -39 11.998000144958494 M 86 10.998000144958494 L 85 10.998000144958494 L 82.99800109863281 10.998000144958494 L 82.99800109863281 25.999999999999993 L 71.00299835205078 25.999999999999993 L 71.00299835205078 22.997999191284176 L 50.99800109863281 22.997999191284176 L 50.99800109863281 25.999999999999993 L 39.00299835205078 25.999999999999993 L 39.00299835205078 10.998000144958494 L 36 10.998000144958494 L 36 -8.998000144958494 L 39.00299835205078 -8.998000144958494 L 39.00299835205078 -23.999999999999993 L 50.99800109863281 -23.999999999999993 L 50.99800109863281 -20.997999191284176 L 71.00299835205078 -20.997999191284176 L 71.00299835205078 -23.999999999999993 L 82.99800109863281 -23.999999999999993 L 82.99800109863281 -8.998000144958494 L 85 -8.998000144958494 L 86 -8.998000144958494 L 86 10.998000144958494 M 70.00299835205078 90.99999999999999 L 70.00299835205078 87.9980010986328 L 49.99800109863281 87.9980010986328 L 49.99800109863281 90.99999999999999 L 38.00299835205078 90.99999999999999 L 38.00299835205078 75.9980010986328 L 35 75.9980010986328 L 35 56.00299835205077 L 38.00299835205078 56.00299835205077 L 38.00299835205078 40.99999999999999 L 49.99800109863281 40.99999999999999 L 49.99800109863281 44.002998352050774 L 70.00299835205078 44.002998352050774 L 70.00299835205078 40.99999999999999 L 81.99800109863281 40.99999999999999 L 81.99800109863281 56.00299835205077 L 85 56.00299835205077 L 85 75.9980010986328 L 81.99800109863281 75.9980010986328 L 81.99800109863281 90.99999999999999 L 70.00299835205078 90.99999999999999 M 9.003000259399414 26.999999999999993 L 9.003000259399414 23.997999191284176 L -11.003000259399414 23.997999191284176 L -11.003000259399414 26.999999999999993 L -22.99799919128418 26.999999999999993 L -22.99799919128418 11.998000144958494 L -26 11.998000144958494 L -26 -7.998000144958494 L -22.99799919128418 -7.998000144958494 L -22.99799919128418 -22.999999999999996 L -11.003000259399414 -22.999999999999996 L -11.003000259399414 -19.997999191284176 L 9.003000259399414 -19.997999191284176 L 9.003000259399414 -22.999999999999996 L 20.99799919128418 -22.999999999999996 L 20.99799919128418 -7.998000144958494 L 24 -7.998000144958494 L 24 11.998000144958494 L 20.99799919128418 11.998000144958494 L 20.99799919128418 26.999999999999993 L 9.003000259399414 26.999999999999993 M 9.003000259399414 91.99999999999999 L 9.003000259399414 88.9980010986328 L -11.003000259399414 88.9980010986328 L -11.003000259399414 91.99999999999999 L -22.99799919128418 91.99999999999999 L -22.99799919128418 76.9980010986328 L -26 76.9980010986328 L -26 57.00299835205077 L -22.99799919128418 57.00299835205077 L -22.99799919128418 41.99999999999999 L -11.003000259399414 41.99999999999999 L -11.003000259399414 45.002998352050774 L 9.003000259399414 45.002998352050774 L 9.003000259399414 41.99999999999999 L 20.99799919128418 41.99999999999999 L 20.99799919128418 57.00299835205077 L 24 57.00299835205077 L 24 76.9980010986328 L 20.99799919128418 76.9980010986328 L 20.99799919128418 91.99999999999999 L 9.003000259399414 91.99999999999999 M -54.99800109863281 91.99999999999999 L -54.99800109863281 88.9980010986328 L -75.00299835205078 88.9980010986328 L -75.00299835205078 91.99999999999999 L -86.99800109863281 91.99999999999999 L -86.99800109863281 76.9980010986328 L -90 76.9980010986328 L -90 57.00299835205077 L -86.99800109863281 57.00299835205077 L -86.99800109863281 41.99999999999999 L -75.00299835205078 41.99999999999999 L -75.00299835205078 45.002998352050774 L -54.99800109863281 45.002998352050774 L -54.99800109863281 41.99999999999999 L -43.00299835205078 41.99999999999999 L -43.00299835205078 57.00299835205077 L -40 57.00299835205077 L -40 76.9980010986328 L -43.00299835205078 76.9980010986328 L -43.00299835205078 91.99999999999999 L -54.99800109863281 91.99999999999999 z" fill="none" stroke="rgb(255,0,0)" stroke-width="0.001mm" />
</svg>
